<svg viewBox="0 0 24 24" fill="none" xmlns="http://www.w3.org/2000/svg" preserveAspectRatio="xMidYMid meet">
<path d="M6.59719 16.5976C6.375 16.8198 6.375 17.18 6.59719 17.4022C6.81939 17.6244 7.17964 17.6244 7.40183 17.4022L6.99951 16.9999L6.59719 16.5976ZM12.4018 12.4022C12.624 12.18 12.624 11.8198 12.4018 11.5976C12.1796 11.3754 11.8194 11.3754 11.5972 11.5976L11.9995 11.9999L12.4018 12.4022ZM11.5972 11.5976C11.375 11.8198 11.375 12.18 11.5972 12.4022C11.8194 12.6244 12.1796 12.6244 12.4018 12.4022L11.9995 11.9999L11.5972 11.5976ZM17.4018 7.4022C17.624 7.18 17.624 6.81975 17.4018 6.59756C17.1796 6.37536 16.8194 6.37536 16.5972 6.59756L16.9995 6.99988L17.4018 7.4022ZM12.4018 11.5976C12.1796 11.3754 11.8194 11.3754 11.5972 11.5976C11.375 11.8198 11.375 12.18 11.5972 12.4022L11.9995 11.9999L12.4018 11.5976ZM16.5972 17.4022C16.8194 17.6244 17.1796 17.6244 17.4018 17.4022C17.624 17.18 17.624 16.8198 17.4018 16.5976L16.9995 16.9999L16.5972 17.4022ZM11.5975 12.4024C11.8197 12.6246 12.1799 12.6246 12.4021 12.4024C12.6243 12.1802 12.6243 11.8199 12.4021 11.5977L11.9998 12.0001L11.5975 12.4024ZM7.4021 6.59774C7.1799 6.37554 6.81965 6.37554 6.59746 6.59774C6.37526 6.81993 6.37526 7.18018 6.59746 7.40237L6.99978 7.00006L7.4021 6.59774ZM6.99951 16.9999L7.40183 17.4022L12.4018 12.4022L11.9995 11.9999L11.5972 11.5976L6.59719 16.5976L6.99951 16.9999ZM11.9995 11.9999L12.4018 12.4022L17.4018 7.4022L16.9995 6.99988L16.5972 6.59756L11.5972 11.5976L11.9995 11.9999ZM11.9995 11.9999L11.5972 12.4022L16.5972 17.4022L16.9995 16.9999L17.4018 16.5976L12.4018 11.5976L11.9995 11.9999ZM11.9998 12.0001L12.4021 11.5977L7.4021 6.59774L6.99978 7.00006L6.59746 7.40237L11.5975 12.4024L11.9998 12.0001Z" fill="black"/>
</svg>
