<svg viewBox="0 0 24 24" fill="none" xmlns="http://www.w3.org/2000/svg" preserveAspectRatio="xMidYMid meet">
<path d="M12.6778 7.86546C12.8852 7.60657 12.8436 7.2285 12.5847 7.02101C12.3258 6.81352 11.9477 6.85519 11.7402 7.11407L12.209 7.48976L12.6778 7.86546ZM6.311 14.8488L6.76598 15.241C6.77067 15.2356 6.77526 15.2301 6.77975 15.2245L6.311 14.8488ZM6.14 15.2668L5.54044 15.2277L5.53992 15.239L6.14 15.2668ZM6 18.2898L5.39992 18.262C5.39853 18.2918 5.39938 18.3217 5.40244 18.3514L6 18.2898ZM6.787 18.9768L6.80664 19.5772C6.8467 19.5759 6.88653 19.5705 6.92554 19.5613L6.787 18.9768ZM9.787 18.2658L9.92555 18.8504L9.93488 18.848L9.787 18.2658ZM10.172 18.0218L10.6354 18.4041L10.6407 18.3976L10.172 18.0218ZM16.6807 10.8656C16.8882 10.6068 16.8466 10.2287 16.5878 10.0211C16.329 9.81355 15.9509 9.85512 15.7433 10.1139L16.212 10.4898L16.6807 10.8656ZM11.7434 7.11392C11.5358 7.37273 11.5773 7.75082 11.8362 7.95839C12.095 8.16597 12.4731 8.12443 12.6806 7.86561L12.212 7.48976L11.7434 7.11392ZM13.8 5.50976L14.2686 5.88561C14.2765 5.87577 14.2841 5.86568 14.2914 5.85536L13.8 5.50976ZM15.429 5.18976L15.8133 4.72805C15.7942 4.71213 15.7741 4.69741 15.7531 4.68398L15.429 5.18976ZM17.666 7.05176L18.0912 6.62738C18.0781 6.61431 18.0645 6.60186 18.0503 6.59005L17.666 7.05176ZM18.0029 7.87264L18.6037 7.87594V7.87594L18.0029 7.87264ZM17.657 8.68976L17.2365 8.26073C17.2195 8.27742 17.2035 8.29511 17.1885 8.3137L17.657 8.68976ZM15.7435 10.1137C15.5359 10.3724 15.5772 10.7505 15.8359 10.9582C16.0947 11.1659 16.4728 11.1245 16.6805 10.8658L16.212 10.4898L15.7435 10.1137ZM12.8061 7.40074C12.7569 7.07263 12.4511 6.8465 12.123 6.89567C11.7949 6.94484 11.5687 7.25068 11.6179 7.57879L12.212 7.48976L12.8061 7.40074ZM16.2929 11.085C16.6216 11.0404 16.8519 10.7376 16.8073 10.4089C16.7626 10.0801 16.4599 9.84984 16.1311 9.89451L16.212 10.4898L16.2929 11.085ZM12.209 7.48976L11.7402 7.11407L5.84225 14.4731L6.311 14.8488L6.77975 15.2245L12.6778 7.86546L12.209 7.48976ZM6.311 14.8488L5.85602 14.4565C5.66985 14.6724 5.5591 14.9432 5.54055 15.2277L6.14 15.2668L6.73945 15.3059C6.74101 15.2819 6.75032 15.2592 6.76598 15.241L6.311 14.8488ZM6.14 15.2668L5.53992 15.239L5.39992 18.262L6 18.2898L6.60008 18.3176L6.74009 15.2946L6.14 15.2668ZM6 18.2898L5.40244 18.3514C5.47608 19.0653 6.08934 19.6006 6.80664 19.5772L6.787 18.9768L6.76736 18.3764C6.68062 18.3792 6.60646 18.3145 6.59756 18.2281L6 18.2898ZM6.787 18.9768L6.92554 19.5613L9.92553 18.8503L9.787 18.2658L9.64846 17.6812L6.64847 18.3922L6.787 18.9768ZM9.787 18.2658L9.93488 18.848C10.2096 18.7782 10.455 18.6227 10.6354 18.404L10.172 18.0218L9.7086 17.6395C9.69071 17.6612 9.66637 17.6766 9.63912 17.6835L9.787 18.2658ZM10.172 18.0218L10.6407 18.3976L16.6807 10.8656L16.212 10.4898L15.7433 10.1139L9.70335 17.6459L10.172 18.0218ZM12.212 7.48976L12.6806 7.86561L14.2686 5.88561L13.8 5.50976L13.3314 5.13392L11.7434 7.11392L12.212 7.48976ZM13.8 5.50976L14.2914 5.85536C14.476 5.59285 14.8347 5.52239 15.1049 5.69555L15.429 5.18976L15.7531 4.68398C14.9412 4.16365 13.8634 4.37536 13.3086 5.16417L13.8 5.50976ZM15.429 5.18976L15.0447 5.65148L17.2817 7.51348L17.666 7.05176L18.0503 6.59005L15.8133 4.72805L15.429 5.18976ZM17.666 7.05176L17.2408 7.47615C17.3449 7.58044 17.403 7.72199 17.4022 7.86934L18.0029 7.87264L18.6037 7.87594C18.6062 7.40805 18.4217 6.95854 18.0912 6.62738L17.666 7.05176ZM18.0029 7.87264L17.4022 7.86934C17.4014 8.01668 17.3418 8.1576 17.2365 8.26073L17.657 8.68976L18.0775 9.1188C18.4116 8.79129 18.6011 8.34383 18.6037 7.87594L18.0029 7.87264ZM17.657 8.68976L17.1885 8.3137L15.7435 10.1137L16.212 10.4898L16.6805 10.8658L18.1255 9.06583L17.657 8.68976ZM12.212 7.48976L11.6179 7.57879C11.9552 9.82934 14.0379 11.3914 16.2929 11.085L16.212 10.4898L16.1311 9.89451C14.5273 10.1124 13.046 9.00142 12.8061 7.40074L12.212 7.48976Z" fill="#ffffff"/>
</svg>
