<svg viewBox="0 0 307 94" fill="none" xmlns="http://www.w3.org/2000/svg" preserveAspectRatio="xMidYMid meet">
<path d="M238.042 92.9595C234.988 92.9595 232.513 90.4839 232.513 87.4301V23.1581C232.513 20.1043 234.988 17.6287 238.042 17.6287H264.559C281.415 17.6287 292.444 28.2416 292.444 44.0569C292.444 60.1843 281.103 70.277 263.935 70.277H257.811C254.757 70.277 252.282 72.7526 252.282 75.8064V87.4301C252.282 90.4839 249.806 92.9595 246.752 92.9595H238.042ZM252.282 49.3485C252.282 52.4023 254.757 54.8779 257.811 54.8779H259.981C267.473 54.8779 271.739 50.7159 271.739 44.0569C271.739 37.5018 267.473 33.444 259.981 33.444H257.811C254.757 33.444 252.282 35.9196 252.282 38.9734V49.3485Z" fill="#391616"/>
<path d="M171.312 17.6287C175.384 17.6288 178.684 20.9293 178.684 25.0007V66.7195C178.684 70.7912 181.987 74.0915 186.059 74.0916H200.686C201.963 74.0916 203.164 74.4169 204.211 74.988V26.8445C204.211 21.7548 208.338 17.6287 213.427 17.6287H214.764C219.854 17.6287 223.98 21.7548 223.98 26.8445V83.7439C223.98 88.8335 219.854 92.9597 214.764 92.9597H213.427C210.732 92.9597 208.308 91.8026 206.623 89.9587C205.28 91.7781 203.123 92.9597 200.688 92.9597H164.97C160.898 92.9597 157.597 89.6584 157.597 85.5867V25.0007C157.597 20.9292 160.899 17.6287 164.97 17.6287H171.312Z" fill="url(#paint0_linear_13194_14291)"/>
<path d="M112.996 16.5881C133.389 16.5883 149.413 30.2187 149.413 55.2942C149.413 80.3696 133.389 94.0001 112.996 94.0002C102.141 94.0002 92.588 90.1855 85.9766 82.925C86.0218 82.5128 86.0478 82.0943 86.0479 81.6702V32.3801C86.0479 30.933 85.8386 29.5345 85.4502 28.2131C92.0756 20.5795 101.85 16.5881 112.996 16.5881ZM71.2969 17.6282C77.9965 17.6283 83.6521 22.0954 85.4502 28.2131C79.8298 34.6888 76.4746 43.7854 76.4746 55.2942C76.4746 67.1084 80.04 76.4057 85.9766 82.925C85.3555 88.588 80.5858 93.0094 74.7588 93.0627C68.4262 93.1206 63.261 88.003 63.2607 81.6702V68.5842L57.1318 84.2229C54.829 90.0987 49.0142 93.8327 42.7129 93.4827C36.9797 93.164 31.9641 89.5178 29.8926 84.1624L23.3066 67.135V81.3059C23.3066 87.7419 18.0893 92.9592 11.6533 92.9592C5.21736 92.9592 0 87.7419 0 81.3059V32.3801C0 24.2333 6.60421 17.6283 14.751 17.6282C20.7433 17.6282 26.1399 21.2538 28.4062 26.801L42.3789 60.9993C42.4859 61.2613 42.7404 61.4327 43.0234 61.4329C43.3066 61.4329 43.5618 61.2614 43.6689 60.9993L57.6406 26.801C59.9069 21.2538 65.3046 17.6282 71.2969 17.6282ZM112.996 33.8606C102.591 33.8606 96.8682 41.4558 96.8682 55.2942C96.8682 69.1325 102.591 76.7278 112.996 76.7278C123.297 76.7276 129.02 69.1324 129.02 55.2942C129.02 41.4559 123.297 33.8608 112.996 33.8606Z" fill="#391616"/>
<path d="M289.24 5.5677C290.558 4.70324 292.335 5.17932 293.044 6.58685L294.932 10.336C295.187 10.8411 295.596 11.251 296.102 11.5054L299.851 13.3939C301.258 14.1028 301.734 15.8796 300.87 17.1974L298.567 20.7074C298.257 21.1802 298.107 21.7402 298.139 22.3048L298.378 26.4959C298.468 28.0694 297.167 29.37 295.594 29.2803L291.403 29.0411C290.838 29.0089 290.278 29.159 289.805 29.4692L286.295 31.7718C284.978 32.6363 283.201 32.1602 282.492 30.7527L280.603 27.0035C280.349 26.4985 279.939 26.0885 279.434 25.8341L275.685 23.9457C274.277 23.2367 273.801 21.4599 274.666 20.1422L276.968 16.6321C277.279 16.1593 277.429 15.5993 277.396 15.0347L277.157 10.8436C277.067 9.27016 278.368 7.96947 279.942 8.05925L284.133 8.29837C284.697 8.33058 285.257 8.18053 285.73 7.87033L289.24 5.5677Z" fill="url(#paint1_radial_13194_14291)"/>
<defs>
<linearGradient id="paint0_linear_13194_14291" x1="183.124" y1="92.9597" x2="205.321" y2="92.9597" gradientUnits="userSpaceOnUse">
<stop stop-color="#391D16"/>
<stop offset="0.9" stop-color="#FF6262"/>
</linearGradient>
<radialGradient id="paint1_radial_13194_14291" cx="0" cy="0" r="1" gradientUnits="userSpaceOnUse" gradientTransform="translate(287.768 18.6698) rotate(105) scale(23.7451)">
<stop stop-color="#75B179"/>
<stop offset="1" stop-color="white"/>
</radialGradient>
</defs>
</svg>
