<svg viewBox="0 0 30 30" fill="none" xmlns="http://www.w3.org/2000/svg">
<path fill-rule="evenodd" clip-rule="evenodd" d="M8.0943 15.5787C7.94929 11.6152 11.0386 8.28149 15.0018 8.125C18.9649 8.28149 22.0543 11.6152 21.9093 15.5787C21.9093 17.225 23.698 18.8288 23.7505 20.4788C23.7505 20.5021 23.7505 20.5254 23.7505 20.5487C23.7893 21.6059 22.9651 22.4949 21.908 22.5363H17.918C17.9218 23.3463 17.6164 24.1273 17.0643 24.72C16.5334 25.2965 15.7855 25.6245 15.0018 25.6245C14.2181 25.6245 13.4702 25.2965 12.9393 24.72C12.3872 24.1273 12.0818 23.3463 12.0855 22.5363H8.0943C7.03727 22.4949 6.21309 21.6059 6.2518 20.5487C6.2518 20.5254 6.2518 20.5021 6.2518 20.4788C6.30555 18.8338 8.0943 17.2262 8.0943 15.5787Z" fill="currentColor" stroke="currentColor" stroke-width="1.74757" stroke-linecap="round" stroke-linejoin="round"/>
<path d="M12.0854 21.6622C11.6029 21.6622 11.2117 22.0534 11.2117 22.536C11.2117 23.0186 11.6029 23.4098 12.0854 23.4098V22.536V21.6622ZM17.9179 23.4098C18.4005 23.4098 18.7917 23.0186 18.7917 22.536C18.7917 22.0534 18.4005 21.6622 17.9179 21.6622V22.536V23.4098ZM16.2505 6.49879C16.7331 6.49879 17.1243 6.10758 17.1243 5.625C17.1243 5.14242 16.7331 4.75121 16.2505 4.75121V5.625V6.49879ZM13.7505 4.75121C13.2679 4.75121 12.8767 5.14242 12.8767 5.625C12.8767 6.10758 13.2679 6.49879 13.7505 6.49879V5.625V4.75121ZM12.0854 22.536V23.4098H17.9179V22.536V21.6622H12.0854V22.536ZM16.2505 5.625V4.75121H13.7505V5.625V6.49879H16.2505V5.625Z" fill="currentColor"/>
</svg>
