<svg xmlns="http://www.w3.org/2000/svg" fill="none" viewBox="0 0 24 24"><path fill="currentColor" d="M6.47 16.47a.75.75 0 1 0 1.06 1.06L7 17zm6.06-3.94a.75.75 0 1 0-1.06-1.06L12 12zm-1.06-1.06a.75.75 0 1 0 1.06 1.06L12 12zm6.06-3.94a.75.75 0 0 0-1.06-1.06L17 7zm-5 3.94a.75.75 0 1 0-1.06 1.06L12 12zm3.94 6.06a.75.75 0 1 0 1.06-1.06L17 17zm-5-5a.75.75 0 1 0 1.06-1.06L12 12zM7.53 6.47a.75.75 0 0 0-1.06 1.06L7 7zM7 17l.53.53 5-5L12 12l-.53-.53-5 5zm5-5 .53.53 5-5L17 7l-.53-.53-5 5zm0 0-.53.53 5 5L17 17l.53-.53-5-5zm0 0 .53-.53-5-5L7 7l-.53.53 5 5z"/></svg>