<svg viewBox="0 0 51 51" fill="none" xmlns="http://www.w3.org/2000/svg" preserveAspectRatio="xMidYMid meet">
<path d="M28.0361 0.808751C30.4979 -0.80622 33.8172 0.0831812 35.1416 2.71268L38.6696 9.71669C39.1448 10.6602 39.9107 11.4261 40.8543 11.9014L47.8583 15.4293C50.4878 16.7538 51.3772 20.0731 49.7622 22.5349L45.4605 29.0922C44.881 29.9755 44.6007 31.0218 44.6609 32.0765L45.1076 39.9061C45.2753 42.8456 42.8454 45.2755 39.906 45.1078L32.0763 44.6611C31.0216 44.6009 29.9754 44.8812 29.092 45.4607L22.5347 49.7624C20.0729 51.3774 16.7536 50.488 15.4291 47.8585L11.9012 40.8545C11.4259 39.9109 10.6601 39.145 9.71651 38.6698L2.7125 35.1418C0.0830016 33.8173 -0.806404 30.498 0.808566 28.0363L5.11025 21.479C5.68976 20.5956 5.97009 19.5494 5.9099 18.4946L5.46318 10.665C5.29547 7.72555 7.72536 5.29565 10.6648 5.46336L18.4944 5.91009C19.5492 5.97027 20.5954 5.68994 21.4788 5.11043L28.0361 0.808751Z" fill="url(#paint0_radial_13205_14332)"/>
<defs>
<radialGradient id="paint0_radial_13205_14332" cx="0" cy="0" r="1" gradientUnits="userSpaceOnUse" gradientTransform="translate(25.2854 25.2856) rotate(105) scale(44.3599)">
<stop stop-color="#75B179"/>
<stop offset="1" stop-color="white"/>
</radialGradient>
</defs>
</svg>
