<svg viewBox="0 0 119 119" fill="none" xmlns="http://www.w3.org/2000/svg" preserveAspectRatio="xMidYMid meet">
<path d="M65.961 1.90275C71.7528 -1.89679 79.5621 0.195706 82.6782 6.38212L90.9784 22.8604C92.0965 25.0803 93.8984 26.8822 96.1183 28.0004L112.597 36.3005C118.783 39.4166 120.876 47.2259 117.076 53.0178L106.955 68.4451C105.592 70.5234 104.932 72.9848 105.074 75.4664L106.125 93.8871C106.52 100.803 100.803 106.52 93.8872 106.125L75.4665 105.074C72.9849 104.932 70.5235 105.592 68.4452 106.955L53.0179 117.076C47.2261 120.875 39.4168 118.783 36.3007 112.596L28.0005 96.1182C26.8823 93.8983 25.0805 92.0964 22.8606 90.9782L6.38225 82.6781C0.19584 79.562 -1.89666 71.7527 1.90288 65.9608L12.0234 50.5335C13.3868 48.4552 14.0464 45.9938 13.9048 43.5122L12.8538 25.0915C12.4592 18.1759 18.176 12.4591 25.0917 12.8536L43.5124 13.9046C45.9939 14.0462 48.4553 13.3867 50.5336 12.0233L65.961 1.90275Z" fill="url(#paint0_radial_13157_14461)"/>
<defs>
<radialGradient id="paint0_radial_13157_14461" cx="0" cy="0" r="1" gradientUnits="userSpaceOnUse" gradientTransform="translate(59.4894 59.4893) rotate(105) scale(104.365)">
<stop stop-color="#FFA600"/>
<stop offset="1" stop-color="white"/>
</radialGradient>
</defs>
</svg>
