<svg width="1em" height="1em" viewBox="0 0 42 42" fill="none" xmlns="http://www.w3.org/2000/svg">
<path fill-rule="evenodd" clip-rule="evenodd" d="M25.8125 13.5625C25.8125 16.2204 23.6579 18.375 21 18.375C18.3421 18.375 16.1875 16.2204 16.1875 13.5625C16.1875 10.9046 18.3421 8.75 21 8.75C23.6579 8.75 25.8125 10.9046 25.8125 13.5625Z" fill="#541E0F" stroke="#541E0F" stroke-width="2" stroke-linecap="round" stroke-linejoin="round"/>
<path fill-rule="evenodd" clip-rule="evenodd" d="M11.375 27.3193C11.4693 30.4977 14.1202 32.9991 17.2987 32.9088H24.7013C27.8798 32.9991 30.5307 30.4977 30.625 27.3193M30.625 27.3193C30.5307 24.1409 27.8798 21.6395 24.7013 21.7298H17.2987C14.1202 21.6395 11.4693 24.1409 11.375 27.3193" fill="#541E0F"/>
<path d="M12.3746 27.2897C12.3582 26.7376 11.8974 26.3034 11.3453 26.3198C10.7933 26.3362 10.3591 26.797 10.3754 27.349L11.375 27.3193L12.3746 27.2897ZM17.2987 32.9088V31.9088C17.2893 31.9088 17.2798 31.909 17.2704 31.9092L17.2987 32.9088ZM24.7013 32.9088L24.7296 31.9092C24.7202 31.909 24.7107 31.9088 24.7013 31.9088V32.9088ZM31.6246 27.349C31.6409 26.797 31.2067 26.3362 30.6547 26.3198C30.1026 26.3034 29.6418 26.7376 29.6254 27.2897L30.625 27.3193L31.6246 27.349ZM29.6254 27.3489C29.6418 27.901 30.1026 28.3352 30.6547 28.3188C31.2067 28.3025 31.6409 27.8417 31.6246 27.2896L30.625 27.3193L29.6254 27.3489ZM24.7013 21.7298V22.7298C24.7107 22.7298 24.7202 22.7296 24.7296 22.7294L24.7013 21.7298ZM17.2987 21.7298L17.2704 22.7294C17.2798 22.7296 17.2893 22.7298 17.2987 22.7298V21.7298ZM10.3754 27.2896C10.3591 27.8417 10.7933 28.3025 11.3453 28.3188C11.8974 28.3352 12.3582 27.901 12.3746 27.3489L11.375 27.3193L10.3754 27.2896ZM11.375 27.3193L10.3754 27.349C10.4861 31.0789 13.5971 34.0143 17.3271 33.9084L17.2987 32.9088L17.2704 31.9092C14.6434 31.9838 12.4525 29.9165 12.3746 27.2897L11.375 27.3193ZM17.2987 32.9088V33.9088H24.7013V32.9088V31.9088H17.2987V32.9088ZM24.7013 32.9088L24.6729 33.9084C28.4029 34.0143 31.5139 31.0789 31.6246 27.349L30.625 27.3193L29.6254 27.2897C29.5475 29.9165 27.3566 31.9838 24.7296 31.9092L24.7013 32.9088ZM30.625 27.3193L31.6246 27.2896C31.5139 23.5597 28.4029 20.6243 24.6729 20.7302L24.7013 21.7298L24.7296 22.7294C27.3566 22.6548 29.5475 24.7221 29.6254 27.3489L30.625 27.3193ZM24.7013 21.7298V20.7298H17.2987V21.7298V22.7298H24.7013V21.7298ZM17.2987 21.7298L17.3271 20.7302C13.5971 20.6243 10.4861 23.5597 10.3754 27.2896L11.375 27.3193L12.3746 27.3489C12.4525 24.7221 14.6434 22.6548 17.2704 22.7294L17.2987 21.7298Z" fill="#541E0F"/>
</svg>
