<svg viewBox="0 0 24 24" fill="none" xmlns="http://www.w3.org/2000/svg">
<path fill-rule="evenodd" clip-rule="evenodd" d="M11.0005 6.99988C11.0005 8.10445 10.1051 8.99988 9.00049 8.99988C7.89592 8.99988 7.00049 8.10445 7.00049 6.99988C7.00049 5.89531 7.89592 4.99988 9.00049 4.99988C10.1051 4.99988 11.0005 5.89531 11.0005 6.99988Z" stroke="currentColor" stroke-width="1.5" stroke-linecap="round" stroke-linejoin="round"/>
<path fill-rule="evenodd" clip-rule="evenodd" d="M14.0005 15.4999C14.0005 17.4329 11.7615 18.9999 9.00049 18.9999C6.23949 18.9999 4.00049 17.4329 4.00049 15.4999C4.00049 13.5669 6.23949 11.9999 9.00049 11.9999C11.7615 11.9999 14.0005 13.5669 14.0005 15.4999Z" stroke="currentColor" stroke-width="1.5" stroke-linecap="round" stroke-linejoin="round"/>
<path d="M16.5313 4.46943C16.2384 4.17653 15.7635 4.17653 15.4706 4.46943C15.1778 4.76232 15.1778 5.23719 15.4706 5.53009L16.001 4.99976L16.5313 4.46943ZM17.4706 7.53009C17.7635 7.82298 18.2384 7.82298 18.5313 7.53009C18.8242 7.23719 18.8242 6.76232 18.5313 6.46943L18.001 6.99976L17.4706 7.53009ZM18.5313 6.46943C18.2384 6.17653 17.7635 6.17653 17.4706 6.46943C17.1778 6.76232 17.1778 7.23719 17.4706 7.53009L18.001 6.99976L18.5313 6.46943ZM19.4706 9.53009C19.7635 9.82298 20.2384 9.82298 20.5313 9.53009C20.8242 9.23719 20.8242 8.76232 20.5313 8.46943L20.001 8.99976L19.4706 9.53009ZM18.5313 7.53009C18.8242 7.23719 18.8242 6.76232 18.5313 6.46943C18.2384 6.17653 17.7635 6.17653 17.4706 6.46943L18.001 6.99976L18.5313 7.53009ZM15.4706 8.46943C15.1778 8.76232 15.1778 9.23719 15.4706 9.53009C15.7635 9.82298 16.2384 9.82298 16.5313 9.53009L16.001 8.99976L15.4706 8.46943ZM17.4706 6.46943C17.1778 6.76232 17.1778 7.23719 17.4706 7.53009C17.7635 7.82298 18.2384 7.82298 18.5313 7.53009L18.001 6.99976L17.4706 6.46943ZM20.5313 5.53009C20.8242 5.23719 20.8242 4.76232 20.5313 4.46943C20.2384 4.17653 19.7635 4.17653 19.4706 4.46943L20.001 4.99976L20.5313 5.53009ZM16.001 4.99976L15.4706 5.53009L17.4706 7.53009L18.001 6.99976L18.5313 6.46943L16.5313 4.46943L16.001 4.99976ZM18.001 6.99976L17.4706 7.53009L19.4706 9.53009L20.001 8.99976L20.5313 8.46943L18.5313 6.46943L18.001 6.99976ZM18.001 6.99976L17.4706 6.46943L15.4706 8.46943L16.001 8.99976L16.5313 9.53009L18.5313 7.53009L18.001 6.99976ZM18.001 6.99976L18.5313 7.53009L20.5313 5.53009L20.001 4.99976L19.4706 4.46943L17.4706 6.46943L18.001 6.99976Z" fill="currentColor"/>
</svg>
