<svg viewBox="0 0 42 42" fill="none" xmlns="http://www.w3.org/2000/svg">
<path fill-rule="evenodd" clip-rule="evenodd" d="M25.8125 13.5625C25.8125 16.2204 23.6579 18.375 21 18.375C18.3421 18.375 16.1875 16.2204 16.1875 13.5625C16.1875 10.9046 18.3421 8.75 21 8.75C23.6579 8.75 25.8125 10.9046 25.8125 13.5625Z" stroke="#ADADAD" stroke-width="2" stroke-linecap="round" stroke-linejoin="round"/>
<path d="M12.3746 27.5434C12.3582 26.9913 11.8974 26.5571 11.3453 26.5735C10.7933 26.5899 10.3591 27.0507 10.3754 27.6027L11.375 27.573L12.3746 27.5434ZM17.2987 33.1625V32.1625C17.2893 32.1625 17.2798 32.1627 17.2704 32.1629L17.2987 33.1625ZM24.7012 33.1625L24.7296 32.1629C24.7202 32.1627 24.7107 32.1625 24.7012 32.1625V33.1625ZM31.6246 27.6027C31.6409 27.0507 31.2067 26.5899 30.6547 26.5735C30.1026 26.5571 29.6418 26.9913 29.6254 27.5434L30.625 27.573L31.6246 27.6027ZM29.6254 27.3489C29.6418 27.901 30.1026 28.3352 30.6547 28.3188C31.2067 28.3025 31.6409 27.8417 31.6246 27.2896L30.625 27.3193L29.6254 27.3489ZM24.7013 21.7298V22.7298C24.7107 22.7298 24.7202 22.7296 24.7296 22.7294L24.7013 21.7298ZM17.2987 21.7298L17.2704 22.7294C17.2798 22.7296 17.2893 22.7298 17.2987 22.7298V21.7298ZM10.3754 27.2896C10.3591 27.8417 10.7933 28.3025 11.3453 28.3188C11.8974 28.3352 12.3582 27.901 12.3746 27.3489L11.375 27.3193L10.3754 27.2896ZM11.375 27.573L10.3754 27.6027C10.4861 31.3326 13.5971 34.268 17.3271 34.1621L17.2987 33.1625L17.2704 32.1629C14.6434 32.2375 12.4525 30.1702 12.3746 27.5434L11.375 27.573ZM17.2987 33.1625V34.1625H24.7012V33.1625V32.1625H17.2987V33.1625ZM24.7012 33.1625L24.6729 34.1621C28.4029 34.268 31.5139 31.3326 31.6246 27.6027L30.625 27.573L29.6254 27.5434C29.5475 30.1702 27.3566 32.2375 24.7296 32.1629L24.7012 33.1625ZM30.625 27.3193L31.6246 27.2896C31.5139 23.5597 28.4029 20.6243 24.6729 20.7302L24.7013 21.7298L24.7296 22.7294C27.3566 22.6548 29.5475 24.7221 29.6254 27.3489L30.625 27.3193ZM24.7013 21.7298V20.7298H17.2987V21.7298V22.7298H24.7013V21.7298ZM17.2987 21.7298L17.3271 20.7302C13.5971 20.6243 10.4861 23.5597 10.3754 27.2896L11.375 27.3193L12.3746 27.3489C12.4525 24.7221 14.6434 22.6548 17.2704 22.7294L17.2987 21.7298Z" fill="#ADADAD"/>
</svg>
